<svg width="24" height="14" viewBox="0 0 478 580"  xmlns="http://www.w3.org/2000/svg" >
<path
        d="M238.59,385.18c-49.44-49.68-97.4-97.86-145.38-146.07c0.35,4.66,0.37,10.29,1.24,15.79
			c2.75,17.48,7.15,34.42,15.18,50.44c6.4,12.75,14.71,24,24.21,34.32c9.28,10.07,19.67,19.1,29.37,28.79
			c7.64,7.63,14.87,15.67,22.48,23.33c7.5,7.56,15.27,14.85,22.87,22.3c5.1,5,10.18,10.01,15.16,15.13c4.6,4.73,9.04,9.61,14.09,15
			c6.69-6.65,12.79-12.67,18.84-18.74c7.67-7.7,15.28-15.44,22.93-23.15c7.89-7.94,15.79-15.87,23.69-23.79
			c7.18-7.2,14.45-14.31,21.54-21.61c8.41-8.65,17.06-17.11,24.85-26.31c6.14-7.25,12.48-14.87,16.32-23.42
			c5.81-12.91,10.97-26.46,13.8-40.28c4.07-19.84,3.87-40.24-1.12-60.03c-4.54-18.01-11.41-35.08-22.84-50.22
			c-9.36-12.41-19.32-23.98-32.46-32.4c-9.6-6.15-18.95-13.08-29.34-17.48c-12.2-5.17-25.18-8.48-38.65-9.81
			c-22.77-2.24-44.67-0.06-66.42,7.62c-18.16,6.41-33.78,16.5-48.1,28.79c-7.45,6.39-13.65,14.24-20.63,21.66
			c-6.72-5.91-13.24-11.45-19.44-17.34c-0.85-0.81-0.79-4,0.09-5.01c13.19-15.16,27.36-29.41,44.61-39.89
			c31.4-19.08,65.48-28.55,102.39-26.52c18.31,1.01,35.77,5.61,53.02,11.82c21.63,7.79,40.3,20.18,56.74,35.73
			c9,8.52,16.67,18.69,23.81,28.9c6.52,9.34,12.26,19.4,17.03,29.75c6.55,14.23,9.54,29.63,12.16,45.05
			c4,23.5,0.94,46.61-5.01,69.23c-4.66,17.71-12.62,34.13-22.94,49.56c-14.78,22.09-34.89,39.02-53.15,57.74
			c-26.93,27.6-54.39,54.69-81.62,81.99c-3.15,3.15-6.27,6.33-8.96,9.04c-12.44-12.12-24.61-23.98-36.76-35.85
			c-14.54-14.2-29.18-28.29-43.55-42.66c-11.9-11.89-23.48-24.11-35.18-36.2c-7.49-7.74-15.71-14.91-22.23-23.4
			c-6.81-8.86-12.4-18.76-17.76-28.63c-12.22-22.46-18.3-46.71-18.34-72.23c-0.02-12.82,0.67-25.75,2.48-38.43
			c1.29-9.02,4.99-17.7,7.76-27.03c54.08,54.35,107.71,108.23,161.38,162.17c7.11-6.93,13.3-12.91,19.43-18.97
			c9.55-9.45,18.94-19.07,28.61-28.39c18.71-18.02,28.03-39.27,25.24-65.82c-1.87-17.8-9.46-32.73-21.81-44.42
			c-17.94-16.97-47-27.44-76.85-15c-10.67,4.45-20.22,10.26-27.84,19.19c-4.02,4.72-8.59,8.99-13.2,13.15
			c-0.93,0.84-3.85,1.01-4.61,0.25c-6.06-6.08-11.82-12.46-18.59-19.72c9.7-8.81,19.19-17.34,28.56-25.99
			c8.63-7.98,19.15-12.65,29.96-16.35c16.12-5.52,32.79-6.2,49.62-3.47c27.25,4.42,49.45,18.17,65.06,40.21
			c19.12,27,25.95,57.19,15.7,90.09c-3.69,11.84-9.05,22.65-16.09,32.59c-4.06,5.73-9.54,10.47-14.43,15.61
			c-5.55,5.82-11.09,11.65-16.76,17.35c-5.4,5.43-11.01,10.65-16.44,16.05c-5.33,5.3-10.67,10.61-15.8,16.1
			C250.64,371.57,245.01,378.03,238.59,385.18z"
      />
		<path
        d="M239.91,536.16c5.69-6.1,11.1-12.16,16.8-17.94c14.44-14.66,29-29.2,43.52-43.78c16.47-16.53,32.96-33.06,49.44-49.58
			c14.02-14.06,28.43-27.76,41.94-42.29c7.94-8.54,15.24-17.91,21.45-27.78c7.07-11.22,13.67-22.99,18.54-35.3
			c5.16-13.03,8.9-26.79,11.74-40.55c6.22-30.14,5.09-60.18-2.35-90.17c-4.46-17.97-11.11-34.83-20.16-50.87
			c-2.16-3.82-3.94-7.87-5.95-11.92c7.19-4.22,14.43-8.38,21.57-12.7c2.68-1.62,4.4-1.31,5.75,1.62
			c7.71,16.78,16.99,33.02,22.9,50.42c9.96,29.3,13.25,59.99,10.82,90.87c-1.3,16.58-2.68,33.38-8.82,49.24
			c-4.74,12.24-8.44,24.93-13.98,36.78c-6,12.84-12.76,25.5-20.73,37.18c-6.92,10.14-15.83,18.96-24.16,28.1
			c-6.78,7.44-13.94,14.53-21.04,21.67c-10.24,10.3-20.6,20.48-30.84,30.78c-9.69,9.74-19.27,19.61-28.96,29.35
			c-9.99,10.04-20.08,19.97-30.09,29.99c-9.37,9.38-18.69,18.82-28.02,28.23c-9.95,10.03-19.9,20.07-31.32,31.59
			c-8.84-9.63-17.18-18.83-25.65-27.9c-7.09-7.6-14.23-15.16-21.54-22.55c-5.52-5.58-11.39-10.79-16.99-16.29
			c-5.36-5.27-10.57-10.69-15.86-16.03c-5.38-5.43-10.78-10.84-16.19-16.25c-5.42-5.43-10.88-10.81-16.28-16.27
			c-5.26-5.32-10.44-10.72-15.69-16.06c-5.75-5.85-11.48-11.72-17.3-17.49c-5.57-5.53-11.32-10.88-16.86-16.45
			c-4.91-4.93-9.94-9.8-14.35-15.16c-6.2-7.55-12.16-15.33-17.68-23.39c-5.49-8.02-10.7-16.29-15.3-24.85
			c-4.04-7.52-7.23-15.51-10.49-23.42c-6.1-14.77-9.58-30.25-12.65-45.9c-3.78-19.21-4.77-38.53-3.26-57.93
			c0.82-10.54,3.15-20.97,4.72-31.46c2.6-17.37,8.65-33.73,15.53-49.68c4.51-10.47,10.7-20.26,16.64-30.04
			c4.78-7.86,9.8-15.69,15.66-22.74c6.86-8.26,14.37-16.09,22.29-23.35c9.06-8.3,18.61-16.14,28.46-23.48
			c7.52-5.6,15.62-10.54,23.88-14.99c8.15-4.39,16.59-8.56,25.35-11.42c13.86-4.54,27.96-8.51,42.2-11.65
			c31.22-6.89,62.25-5.35,93.48,1.66c23.82,5.35,45.75,14.35,66.99,26.08c15.61,8.62,28.98,20.09,42.98,30.8
			c0.4,0.31,0.57,0.93,1.03,1.73c-5.17,6.37-10.38,12.8-15.59,19.22c-1.86,2.3-3.88,2.56-6.2,0.64c-5.96-4.95-11.64-10.31-18-14.67
			c-8.96-6.15-18.24-11.9-27.75-17.15c-6.94-3.83-14.36-6.85-21.76-9.73c-13.85-5.4-28.23-8.7-42.99-10.77
			c-21.4-3-42.52-2.31-63.93,0.79c-22.24,3.22-42.92,10.51-62.43,20.85c-25.08,13.28-46.67,31.22-64.58,53.48
			c-11.54,14.35-21.44,29.81-28.71,46.61c-8.1,18.7-14.95,37.97-15.94,58.75c-0.52,10.8-2.47,21.63-1.94,32.36
			c0.87,17.6,1.57,35.4,7.86,52.23c5.06,13.54,9.28,27.55,15.78,40.38c10.85,21.43,25.74,40.09,43.06,56.84
			c14.26,13.79,28.02,28.11,42.04,42.16c14.29,14.34,28.64,28.62,42.94,42.95c16.38,16.41,32.74,32.85,49.13,49.25
			C234.26,531.01,236.61,533.08,239.91,536.16z"
      />
		<path
        d="M237.91,269.15c-14.3,1.25-28.53-12.42-28.41-28.39c0.13-16.52,14.11-28.28,28.29-28.34
			c14.43-0.06,28.55,12.39,28.38,28.69C266.01,256.33,252.22,270.57,237.91,269.15z"
      />
</svg>